<?xml version="1.0" encoding="utf-8"?>
<!-- Generator: Adobe Illustrator 16.0.0, SVG Export Plug-In . SVG Version: 6.00 Build 0)  -->
<!DOCTYPE svg PUBLIC "-//W3C//DTD SVG 1.1//EN" "http://www.w3.org/Graphics/SVG/1.1/DTD/svg11.dtd">
<svg version="1.1" id="圖層_1" xmlns="http://www.w3.org/2000/svg" xmlns:xlink="http://www.w3.org/1999/xlink" x="0px" y="0px"
	 width="283.46px" height="283.46px" viewBox="0 0 283.46 283.46" enable-background="new 0 0 283.46 283.46" xml:space="preserve">
<g>
	<path fill="#040000" d="M141.832,2C64.729,2,2,64.729,2,141.834c0,77.107,62.729,139.834,139.832,139.834
		c77.106,0,139.836-62.727,139.836-139.834C281.665,64.729,218.934,2,141.832,2z M141.832,267.877
		c-69.499,0-126.04-56.541-126.04-126.043c0-69.498,56.541-126.042,126.04-126.042s126.045,56.544,126.045,126.042
		C267.874,211.336,211.33,267.877,141.832,267.877z"/>
	<path fill="#040000" d="M184.933,59.783h-30.331c-0.071,0-0.141,0.002-0.208,0.01c-30.625,0.096-34.625,21.479-34.639,40.17
		c-0.043,0.174-0.065,0.354-0.065,0.54v13.121H98.73c-1.27,0-2.298,1.028-2.298,2.298v32.357c0,1.271,1.028,2.299,2.298,2.299
		h20.959v71.008c0,1.27,1.03,2.298,2.298,2.298h30.587c1.272,0,2.298-1.028,2.298-2.298v-71.005h30.059
		c1.271,0,2.298-1.028,2.298-2.3v-32.357c0-1.269-1.026-2.299-2.298-2.299h-32.356V96.232h32.356c1.271,0,2.298-1.03,2.298-2.298
		V62.082C187.232,60.813,186.203,59.783,184.933,59.783z"/>
</g>
</svg>
