<?xml version="1.0" encoding="utf-8"?>
<!-- Generator: Adobe Illustrator 16.0.0, SVG Export Plug-In . SVG Version: 6.00 Build 0)  -->
<!DOCTYPE svg PUBLIC "-//W3C//DTD SVG 1.1//EN" "http://www.w3.org/Graphics/SVG/1.1/DTD/svg11.dtd">
<svg version="1.1" id="圖層_1" xmlns="http://www.w3.org/2000/svg" xmlns:xlink="http://www.w3.org/1999/xlink" x="0px" y="0px"
	 width="283.46px" height="283.46px" viewBox="0 0 283.46 283.46" enable-background="new 0 0 283.46 283.46" xml:space="preserve">
<g>
	<g>
		<path fill="#040000" d="M142.768,280.128c-76.408,0-138.567-62.152-138.567-138.562C4.201,65.159,66.36,3,142.768,3
			c76.409,0,138.564,62.159,138.564,138.566C281.332,217.97,219.171,280.128,142.768,280.128z M142.768,14.053
			c-70.312,0-127.511,57.199-127.511,127.51c0,70.306,57.199,127.506,127.511,127.506c70.307,0,127.506-57.2,127.506-127.506
			C270.274,71.255,213.075,14.053,142.768,14.053z"/>
	</g>
	<g>
		<path fill="#040000" d="M142.768,180.091c-18.793,0-34.078-15.281-34.078-34.073c0-18.79,15.285-34.078,34.078-34.078
			c18.786,0,34.071,15.285,34.071,34.078C176.839,164.81,161.554,180.091,142.768,180.091z M142.768,122.999
			c-12.695,0-23.02,10.326-23.02,23.021c0,12.69,10.325,23.019,23.02,23.019c12.691,0,23.013-10.328,23.013-23.019
			C165.781,133.325,155.459,122.999,142.768,122.999z"/>
		<path fill="#040000" d="M186.562,216.385h-87.59c-18.291,0-33.17-14.882-33.17-33.17V99.917c0-18.29,14.879-33.17,33.17-33.17
			h87.59c18.291,0,33.171,14.881,33.171,33.17v83.297C219.732,201.503,204.853,216.385,186.562,216.385z M98.971,77.804
			c-12.192,0-22.113,9.921-22.113,22.114v83.297c0,12.192,9.921,22.113,22.113,22.113h87.59c12.195,0,22.114-9.921,22.114-22.113
			V99.917c0-12.192-9.919-22.114-22.114-22.114H98.971z"/>
		<path fill="#040000" d="M119.748,132.574H73.171c-3.052,0-5.528-2.478-5.528-5.528c0-3.052,2.477-5.529,5.528-5.529h46.577
			c3.052,0,5.527,2.477,5.527,5.529C125.275,130.096,122.8,132.574,119.748,132.574z"/>
		<path fill="#040000" d="M212.88,132.574h-47.099c-3.051,0-5.528-2.478-5.528-5.528c0-3.052,2.478-5.529,5.528-5.529h47.099
			c3.051,0,5.529,2.477,5.529,5.529C218.409,130.096,215.937,132.574,212.88,132.574z"/>
		<g>
			<path fill="#040000" d="M173.588,94.374c0-3.042,2.484-5.529,5.529-5.529h9.389c3.039,0,5.527,2.487,5.527,5.529v9.386
				c0,3.042-2.488,5.529-5.527,5.529h-9.389c-3.045,0-5.529-2.487-5.529-5.529V94.374z"/>
		</g>
	</g>
</g>
</svg>
