<?xml version="1.0" encoding="utf-8"?>
<!-- Generator: Adobe Illustrator 16.0.0, SVG Export Plug-In . SVG Version: 6.00 Build 0)  -->
<!DOCTYPE svg PUBLIC "-//W3C//DTD SVG 1.1//EN" "http://www.w3.org/Graphics/SVG/1.1/DTD/svg11.dtd">
<svg version="1.1" xmlns="http://www.w3.org/2000/svg" xmlns:xlink="http://www.w3.org/1999/xlink" x="0px" y="0px"
	 width="388.266px" height="388.266px" viewBox="0 0 388.266 388.266" enable-background="new 0 0 388.266 388.266"
	 xml:space="preserve">
<g id="圖層_3">
	<polygon fill="#EDC277" points="8.383,13.383 10.883,374.883 379.883,374.883 379.883,73.383 118.383,13.383 	"/>
</g>
<g id="圖層_2">
	<polygon fill="#EACD9D" points="150.633,22.633 321.133,157.633 384.633,70.633 	"/>
</g>
<g id="Capa_1">
	<g>
		<g id="Layer_8_45_">
			<path fill="#333333" d="M388.172,55.218L116.189,1.089l-0.654-0.128L26.397,1.125L0,1.089v386.216h388.266V64.598L388.172,55.218
				z M319.291,144.434c-25.512-22.917-105.764-77.688-159.457-113.662l206.154,42.069
				C361.865,90.479,350.016,126.11,319.291,144.434z M321.917,166.115c21.45-10.3,36.072-26.549,45.986-43.079v243.903H20.362
				V21.497l4.5-0.012l84.381,0.112c67.822,44.747,184.603,123.856,200.607,142.056l5.09,5.787L321.917,166.115z"/>
		</g>
	</g>
</g>
</svg>
