<?xml version="1.0" encoding="utf-8"?>
<!-- Generator: Adobe Illustrator 16.0.0, SVG Export Plug-In . SVG Version: 6.00 Build 0)  -->
<!DOCTYPE svg PUBLIC "-//W3C//DTD SVG 1.1//EN" "http://www.w3.org/Graphics/SVG/1.1/DTD/svg11.dtd">
<svg version="1.1" xmlns="http://www.w3.org/2000/svg" xmlns:xlink="http://www.w3.org/1999/xlink" x="0px" y="0px"
	 width="283.46px" height="283.46px" viewBox="0 0 283.46 283.46" enable-background="new 0 0 283.46 283.46" xml:space="preserve">
<g id="圖層_2">
	<rect x="41.23" y="36.45" fill="#A6836F" width="202" height="237.78"/>
</g>
<g id="圖層_4">
	<rect x="62.73" y="58.73" fill="#FFFFFF" width="155.5" height="196.5"/>
	<g>
		<g id="Cancel">
			<path fill="#343536" d="M179.1,205.345c-0.228-0.228-0.597-0.228-0.823,0l-5.994,5.994l-5.993-5.994
				c-0.227-0.228-0.595-0.228-0.823,0c-0.227,0.227-0.227,0.597,0,0.822l5.994,5.994l-5.994,5.993c-0.227,0.228-0.227,0.597,0,0.823
				c0.114,0.114,0.263,0.171,0.412,0.171s0.299-0.057,0.411-0.171l5.993-5.992l5.994,5.992c0.113,0.114,0.262,0.171,0.412,0.171
				c0.148,0,0.297-0.057,0.411-0.171c0.228-0.227,0.228-0.596,0-0.823l-5.993-5.993l5.993-5.994
				C179.328,205.942,179.328,205.572,179.1,205.345z"/>
			<path fill="#343536" d="M172.283,194.111c-10.289,0-18.632,8.343-18.632,18.633s8.343,18.633,18.632,18.633
				c10.291,0,18.634-8.343,18.634-18.633S182.574,194.111,172.283,194.111z M172.283,230.211c-9.631,0-17.468-7.836-17.468-17.468
				c0-9.633,7.837-17.468,17.468-17.468c9.633,0,17.469,7.835,17.469,17.468C189.751,222.375,181.916,230.211,172.283,230.211z"/>
		</g>
		<g>
		</g>
		<g>
		</g>
		<g>
		</g>
		<g>
		</g>
		<g>
		</g>
		<g>
		</g>
		<g>
		</g>
		<g>
		</g>
		<g>
		</g>
		<g>
		</g>
		<g>
		</g>
		<g>
		</g>
		<g>
		</g>
		<g>
		</g>
		<g>
		</g>
	</g>
	<g>
		<path fill="#E04F5F" d="M191.054,212.744c0-10.331-8.372-18.702-18.703-18.702c-10.329,0-18.7,8.371-18.7,18.702
			c0,10.329,8.371,18.7,18.7,18.7C182.682,231.444,191.054,223.073,191.054,212.744z"/>
		<path fill="#FFFFFF" d="M174.537,212.744l5.467-6.348c0.595-0.692,0.519-1.736-0.174-2.334c-0.692-0.596-1.737-0.518-2.334,0.175
			l-5.145,5.97l-5.142-5.97c-0.597-0.694-1.642-0.771-2.333-0.175c-0.695,0.598-0.771,1.642-0.175,2.334l5.466,6.348l-5.466,6.346
			c-0.596,0.692-0.521,1.736,0.175,2.334c0.311,0.269,0.695,0.4,1.078,0.4c0.464,0,0.928-0.195,1.255-0.575l5.142-5.97l5.145,5.97
			c0.326,0.382,0.79,0.575,1.255,0.575c0.382,0,0.768-0.132,1.079-0.4c0.692-0.598,0.769-1.642,0.174-2.334L174.537,212.744z"/>
		<g>
		</g>
		<g>
		</g>
		<g>
		</g>
		<g>
		</g>
		<g>
		</g>
		<g>
		</g>
		<g>
		</g>
		<g>
		</g>
		<g>
		</g>
		<g>
		</g>
		<g>
		</g>
		<g>
		</g>
		<g>
		</g>
		<g>
		</g>
		<g>
		</g>
	</g>
</g>
<g id="圖層_3">
	<ellipse fill="#B7B7B7" cx="142.98" cy="42.397" rx="27.083" ry="35.333"/>
	<ellipse fill="#B7B7B7" cx="141.897" cy="66.647" rx="53.167" ry="12.75"/>
</g>
<g id="Capa_1">
	<g>
		<path fill="#2B2B2B" d="M234.66,27.202h-57.672C172.884,11.568,158.634,0,141.73,0c-16.904,0-31.154,11.568-35.257,27.202H48.8
			c-7.567,0-13.724,6.156-13.724,13.724v228.81c0,7.567,6.157,13.725,13.724,13.725h185.861c7.567,0,13.724-6.157,13.724-13.725
			V40.926C248.384,33.358,242.228,27.202,234.66,27.202z M141.73,12.826c13.026,0,23.623,10.598,23.623,23.624v16.309
			c0,3.542,2.872,6.413,6.414,6.413c7.854,0,14.568,4.964,17.174,11.919H94.519c2.606-6.955,9.321-11.919,17.174-11.919
			c3.542,0,6.413-2.871,6.413-6.413V36.45C118.106,23.424,128.704,12.826,141.73,12.826z M86.948,83.917h109.563
			c3.541,0,6.414-2.871,6.414-6.413c0-4.647-1.025-9.059-2.857-13.024h12.994v183.658H70.397V64.48h12.994
			c-1.832,3.965-2.856,8.377-2.856,13.024C80.535,81.046,83.407,83.917,86.948,83.917z M235.558,269.736
			c0,0.495-0.402,0.898-0.897,0.898H48.8c-0.495,0-0.897-0.403-0.897-0.898V40.926c0-0.495,0.402-0.897,0.897-0.897h56.48v6.981
			c-3.986,0.838-7.694,2.44-10.963,4.645H63.984c-3.542,0-6.413,2.871-6.413,6.413v196.485c0,3.541,2.872,6.412,6.413,6.412h155.491
			c3.541,0,6.413-2.871,6.413-6.412V58.067c0-3.542-2.872-6.413-6.413-6.413h-30.333c-3.269-2.205-6.977-3.808-10.963-4.645v-6.98
			h56.48c0.496,0,0.898,0.402,0.898,0.897V269.736L235.558,269.736z"/>
		<path fill="#2B2B2B" d="M141.73,46.39c5.481,0,9.94-4.459,9.94-9.94c0-5.481-4.459-9.94-9.94-9.94s-9.94,4.459-9.94,9.94
			C131.79,41.931,136.249,46.39,141.73,46.39z M141.73,33.563c1.592,0,2.886,1.295,2.886,2.886c0,1.591-1.294,2.886-2.886,2.886
			c-1.591,0-2.886-1.295-2.886-2.886C138.844,34.858,140.139,33.563,141.73,33.563z"/>
	</g>
	<g>
		<path d="M110.656,170.641h-2.498v-1.382H93.877v1.382h-2.484v-20.806h6.563c0.514-0.814,0.965-1.842,1.355-3.082l2.644,0.438
			c-0.284,0.983-0.682,1.864-1.196,2.644h9.897V170.641z M108.159,155.376v-3.176H93.877v3.176H108.159z M108.159,161.009v-3.335
			H93.877v3.335H108.159z M108.159,166.92v-3.626H93.877v3.626H108.159z"/>
		<path d="M140.283,165.34c-0.354,1.727-0.822,3.064-1.401,4.012c-0.581,0.947-1.327,1.422-2.239,1.422
			c-1.523,0-3.038-1.36-4.543-4.079c-1.523,1.134-3.202,2.152-5.035,3.056l-1.355-2.02c2.099-0.982,3.937-2.067,5.514-3.255
			c-0.443-1.709-0.749-4.468-0.917-8.276h-5.687v3.76c1.355-0.274,2.861-0.655,4.517-1.143l0.053,2.364
			c-1.639,0.479-3.162,0.859-4.57,1.143v6.032c0,0.69-0.142,1.204-0.425,1.541c-0.284,0.336-0.643,0.556-1.076,0.657
			c-0.434,0.102-1.213,0.153-2.338,0.153c-0.841,0-1.665-0.022-2.471-0.066l-0.85-2.578c1.222,0.054,2.223,0.08,3.002,0.08
			c0.833,0,1.32-0.037,1.461-0.113c0.142-0.075,0.212-0.236,0.212-0.484v-4.703c-1.948,0.372-3.733,0.643-5.354,0.811l-0.438-2.259
			c1.753-0.194,3.684-0.505,5.792-0.93V156.2h-5.712v-2.312h5.712v-3.082c-1.222,0.186-2.763,0.358-4.623,0.518l-1.089-2.258
			c4.597-0.275,8.436-0.988,11.518-2.14l1.382,2.007c-1.718,0.61-3.286,1.063-4.703,1.354v3.601h5.66
			c-0.036-1.098-0.053-3.41-0.053-6.936h2.418c-0.026,2.356-0.026,4.668,0,6.936h7.427v2.312h-7.347
			c0.062,2.259,0.226,4.38,0.492,6.363c1.258-1.443,2.392-3.21,3.401-5.301l2.125,1.063c-1.479,2.967-3.069,5.226-4.77,6.775
			c0.522,1.063,1.007,1.842,1.455,2.338s0.791,0.744,1.03,0.744c0.62,0,1.173-1.399,1.661-4.198L140.283,165.34z M139.339,151.576
			l-1.966,1.462c-0.974-1.452-2.143-2.768-3.507-3.946l1.874-1.566C137.129,148.747,138.33,150.097,139.339,151.576z"/>
		<path d="M152.453,151.497h-8.928v-2.152h3.533c-0.177-0.495-0.482-1.143-0.916-1.939l2.391-0.651
			c0.426,0.833,0.788,1.696,1.09,2.591h2.83V151.497z M152.014,155.416h-7.692v-2.125h7.692V155.416z M152.014,159.388h-7.692
			v-2.179h7.692V159.388z M152.041,170.096h-2.365v-1.143h-2.962v1.78h-2.339v-9.473h7.666V170.096z M149.675,166.721v-3.228h-2.962
			v3.228H149.675z M167.252,162.949h-5.739v7.812h-2.392v-7.812h-6.178v-2.339h6.178v-10.854h-5.832v-2.378h13.392v2.378h-5.168
			v10.854h5.739V162.949z M158.085,158.644l-2.259,0.771c-0.318-1.948-1.081-4.526-2.285-7.731l2.232-0.851
			C156.828,153.347,157.598,155.952,158.085,158.644z M166.734,151.629c-0.522,2.71-1.223,5.341-2.099,7.892l-2.232-0.903
			c0.886-2.595,1.55-5.159,1.993-7.692L166.734,151.629z"/>
		<path d="M178.438,147.351c-0.301,0.912-0.771,2.055-1.408,3.428l-0.957,1.993v17.842h-2.431v-13.71
			c-0.611,0.807-1.235,1.559-1.873,2.259l-1.196-2.392c2.073-2.445,3.897-5.801,5.474-10.07L178.438,147.351z M194.513,154.3h-7.267
			v5.114h5.633v11.199h-2.444v-1.195h-8.955v1.195h-2.418v-11.199h5.739V154.3h-7.373v-2.379h7.373v-4.941h2.445v4.941h7.267V154.3z
			 M190.435,167.053v-5.301h-8.955v5.301H190.435z"/>
	</g>
	<g>
		<path d="M115.777,115.98h-4.945v-0.82h2.148c-0.193-0.552-0.406-1.042-0.641-1.469l0.719-0.273
			c0.354,0.636,0.609,1.216,0.766,1.742h1.953V115.98z M115.472,118.3h-4.289v-0.805h4.289V118.3z M115.472,120.574h-4.289v-0.805
			h4.289V120.574z M115.167,127.113h-0.797v-0.859h-2.109v1.242h-0.805v-5.375h3.711V127.113z M114.371,125.449v-2.508h-2.109v2.508
			H114.371z M117.535,122.347c-0.359,1.714-0.769,3.011-1.227,3.891l-0.734-0.32c0.516-1.094,0.903-2.349,1.164-3.766
			L117.535,122.347z M124.144,113.917c-0.042,1.177-0.111,2.32-0.207,3.43c-0.097,1.109-0.179,1.767-0.246,1.973
			c-0.068,0.206-0.189,0.392-0.363,0.559c-0.175,0.167-0.416,0.291-0.723,0.371c-0.308,0.081-0.844,0.103-1.609,0.066l-0.242-0.852
			c0.51,0.026,0.877,0.039,1.102,0.039c0.542,0,0.897-0.153,1.066-0.461c0.169-0.307,0.301-1.745,0.395-4.313h-2.164
			c-0.203,3.245-1.722,5.31-4.555,6.195l-0.484-0.656c1.234-0.422,2.216-1.042,2.945-1.859c-0.521-0.604-1.188-1.174-2-1.711
			l0.531-0.563c0.688,0.433,1.331,0.966,1.93,1.602c0.469-0.838,0.737-1.841,0.805-3.008h-3.969v-0.813H124.144z M122.558,124.378
			c-0.058,1.12-0.162,1.843-0.313,2.168c-0.151,0.325-0.347,0.536-0.586,0.633c-0.24,0.096-0.734,0.145-1.484,0.145
			c-0.693,0-1.169-0.098-1.43-0.293c-0.261-0.195-0.391-0.551-0.391-1.066v-3.828h0.797v3.906c0,0.151,0.069,0.272,0.207,0.363
			c0.138,0.091,0.53,0.137,1.176,0.137c0.484,0,0.795-0.091,0.934-0.273c0.138-0.182,0.251-0.883,0.34-2.102L122.558,124.378z
			 M121.574,122.574l-0.578,0.555c-0.552-0.802-1.162-1.521-1.828-2.156l0.531-0.578
			C120.527,121.165,121.152,121.892,121.574,122.574z M124.738,125.691l-0.766,0.352c-0.224-1.141-0.63-2.377-1.219-3.711
			l0.688-0.305C124.076,123.444,124.508,124.665,124.738,125.691z"/>
		<path d="M140.769,121.878l-0.461,0.672c-0.391-0.161-1.102-0.544-2.133-1.148v3.219h-8.305v2.031
			c0.771-0.094,1.864-0.302,3.281-0.625l0.117,0.688c-0.948,0.219-2.357,0.489-4.227,0.813l-0.289-0.641
			c0.224-0.141,0.336-0.315,0.336-0.523v-4.836c-0.38,0.229-0.961,0.544-1.742,0.945l-0.531-0.625
			c1.677-0.781,3.005-1.692,3.984-2.734h-3.773v-0.688h6.398v-1.07h-5.328v-0.703h5.328v-1.039h-5.891v-0.672h12.516v0.672h-5.859
			v1.039h5.313v0.703h-5.313v1.07h6.406v0.688h-3.891C137.592,120.149,138.946,121.071,140.769,121.878z M137.667,121.066
			c-0.875-0.661-1.542-1.313-2-1.953h-3.828c-0.573,0.708-1.25,1.359-2.031,1.953H137.667z M137.425,122.535v-0.797h-7.555v0.797
			H137.425z M137.425,123.964v-0.789h-7.555v0.789H137.425z M132.222,114.347l-0.844,0.352c-0.224-0.182-0.641-0.477-1.25-0.883
			l0.82-0.383C131.214,113.563,131.639,113.868,132.222,114.347z M135.699,120.394h-3.773v-0.672h3.773V120.394z M140.339,126.925
			l-0.414,0.656c-1.87-0.833-4.148-1.484-6.836-1.953l0.43-0.688c1.042,0.193,2.231,0.474,3.57,0.844
			c0.729-0.453,1.354-0.911,1.875-1.375l0.641,0.477c-0.563,0.49-1.081,0.88-1.555,1.172
			C139.066,126.417,139.829,126.707,140.339,126.925z M137.535,113.785c-0.411,0.386-0.841,0.722-1.289,1.008l-0.742-0.461
			c0.453-0.276,0.854-0.575,1.203-0.898L137.535,113.785z"/>
		<path d="M149.425,126.488c0,0.297-0.091,0.543-0.273,0.738s-0.435,0.298-0.758,0.309c-0.323,0.01-0.664,0.016-1.023,0.016
			c-0.297,0-0.573-0.008-0.828-0.023l-0.297-0.859c0.411,0.042,1.078,0.063,2,0.063c0.089,0,0.169-0.042,0.242-0.125
			c0.073-0.083,0.109-0.174,0.109-0.273v-2.32h-3.633c-0.276,1.453-0.789,2.669-1.539,3.648l-0.641-0.578
			c1.016-1.333,1.523-3.258,1.523-5.773v-3.539h5.117V126.488z M156.691,116.378H142.8v-0.797h13.891V116.378z M148.597,123.222
			v-1.961h-3.461c0,0.412-0.031,1.065-0.094,1.961H148.597z M148.597,120.425v-1.836h-3.461v1.836H148.597z M148.597,115.003
			l-0.805,0.336c-0.396-0.479-0.93-0.971-1.602-1.477l0.883-0.352C147.683,114.001,148.191,114.499,148.597,115.003z
			 M153.488,113.902c-0.339,0.448-0.859,0.922-1.563,1.422l-0.852-0.438c0.578-0.359,1.138-0.817,1.68-1.375L153.488,113.902z
			 M152.292,124.871h-0.805v-6.859h0.805V124.871z M155.457,126.378c0,0.292-0.071,0.535-0.215,0.73s-0.32,0.316-0.531,0.363
			s-0.621,0.07-1.23,0.07c-0.349,0-0.724-0.011-1.125-0.031l-0.305-0.875l2.195,0.078c0.266,0.016,0.398-0.138,0.398-0.461v-8.625
			h0.813V126.378z"/>
		<path d="M164.355,127.222h-0.805v-1.375h-3.453v1.695h-0.813v-11.344h1.484c0.401-0.713,0.781-1.63,1.141-2.75l0.797,0.164
			c-0.188,0.563-0.55,1.425-1.086,2.586h2.734V127.222z M163.55,120.441v-3.438h-3.453v3.438H163.55z M163.55,125.035v-3.789h-3.453
			v3.789H163.55z M172.371,116.214c-0.063,2.396-0.179,4.623-0.348,6.68c-0.169,2.058-0.34,3.269-0.512,3.633
			s-0.392,0.624-0.66,0.777c-0.269,0.153-0.777,0.23-1.527,0.23c-0.328,0-0.758-0.008-1.289-0.023l-0.258-0.813
			c0.438,0.016,0.909,0.023,1.414,0.023c0.474,0,0.777-0.005,0.91-0.016c0.133-0.01,0.272-0.077,0.418-0.199
			c0.146-0.122,0.25-0.266,0.313-0.43s0.146-0.777,0.25-1.84s0.19-2.233,0.258-3.512c0.067-1.278,0.117-2.52,0.148-3.723h-4.172
			c-0.558,1.109-1.203,2.164-1.938,3.164l-0.656-0.461c1.401-1.838,2.394-3.888,2.977-6.148l0.813,0.211
			c-0.261,0.854-0.552,1.669-0.875,2.445H172.371z M169.425,123.386l-0.672,0.477c-0.516-1.188-1.289-2.43-2.32-3.727l0.688-0.445
			C168.079,120.847,168.847,122.079,169.425,123.386z"/>
	</g>
	<g>
		<g>
			<path fill="#383B3A" d="M113.184,194.27c-10.258,0-18.605,8.346-18.605,18.605c0,10.259,8.348,18.604,18.605,18.604
				s18.605-8.346,18.605-18.604C131.79,202.616,123.442,194.27,113.184,194.27z M113.184,230.049
				c-9.469,0-17.174-7.704-17.174-17.174s7.705-17.174,17.174-17.174s17.174,7.704,17.174,17.174S122.653,230.049,113.184,230.049z"
				/>
			<path fill="#383B3A" d="M121.952,205.245l-10.998,12.372l-6.625-5.301c-0.309-0.246-0.76-0.195-1.006,0.112
				c-0.247,0.31-0.197,0.759,0.111,1.006l7.156,5.726c0.132,0.104,0.289,0.156,0.447,0.156c0.197,0,0.395-0.081,0.535-0.24
				l11.449-12.881c0.263-0.295,0.236-0.748-0.06-1.01C122.667,204.922,122.215,204.949,121.952,205.245z"/>
		</g>
		<g>
		</g>
		<g>
		</g>
		<g>
		</g>
		<g>
		</g>
		<g>
		</g>
		<g>
		</g>
		<g>
		</g>
		<g>
		</g>
		<g>
		</g>
		<g>
		</g>
		<g>
		</g>
		<g>
		</g>
		<g>
		</g>
		<g>
		</g>
		<g>
		</g>
	</g>
	<g>
		<circle fill="#25AE88" cx="113.267" cy="212.789" r="18.688"/>
		
			<polyline fill="none" stroke="#FFFFFF" stroke-width="2" stroke-linecap="round" stroke-linejoin="round" stroke-miterlimit="10" points="
			122.985,205.313 111.024,218.769 103.549,212.789 		"/>
		<g>
		</g>
		<g>
		</g>
		<g>
		</g>
		<g>
		</g>
		<g>
		</g>
		<g>
		</g>
		<g>
		</g>
		<g>
		</g>
		<g>
		</g>
		<g>
		</g>
		<g>
		</g>
		<g>
		</g>
		<g>
		</g>
		<g>
		</g>
		<g>
		</g>
	</g>
</g>
</svg>
